Coordinates
version=1
nRows=12
nColumns=23
inDegrees=yes

Units are S.I. units (second, meters, Newtons, ...)
If the header above contains a line with 'inDegrees', this indicates whether rotational values are in degrees (yes) or radians (no).

endheader
time	pelvis_tilt	pelvis_list	pelvis_rotation	pelvis_tx	pelvis_ty	pelvis_tz	hip_flexion_r	hip_adduction_r	hip_rotation_r	knee_angle_r	knee_angle_r_beta	ankle_angle_r	subtalar_angle_r	mtp_angle_r	hip_flexion_l	hip_adduction_l	hip_rotation_l	knee_angle_l	knee_angle_l_beta	ankle_angle_l	subtalar_angle_l	mtp_angle_l
     15.00000000	     -2.03894787	     -9.31607885	     -2.40803065	      2.35901822	      0.91152786	      0.98026682	     30.14536254	      9.61359174	    -22.89461236	     24.93793572	      0.43524909	     11.47166350	      6.15581177	      0.00000000	    -16.00327655	    -12.43837412	    -11.33475800	     85.77254931	      1.49701339	    -12.03330087	    -20.12538048	      0.00000000
     15.00666667	     -1.43715964	    -10.00695617	     -2.84660915	      2.35775531	      0.90673624	      0.98038693	     29.44321153	     10.09242041	    -22.87720409	     28.01076970	      0.48888016	     10.81171175	      4.90166082	      0.00000000	    -14.92419407	    -13.28846884	    -11.30591289	     89.75282683	      1.56648234	    -11.56046394	    -20.83465017	      0.00000000
     15.01333333	     -0.94103132	    -10.70681823	     -3.35268442	      2.35615633	      0.90193756	      0.98057188	     28.80263019	     10.71294392	    -22.43695197	     31.05882542	      0.54207877	     10.53549820	      3.34306023	      0.00000000	    -13.61495090	    -14.20627459	    -11.28009812	     93.61727502	      1.63392969	    -11.07859823	    -21.58243923	      0.00000000
     15.02000000	     -0.74376759	    -11.32427357	     -4.00659643	      2.35418402	      0.89709543	      0.98093633	     28.43349937	     11.43966365	    -21.50982220	     34.06323562	      0.59451562	     10.62424555	      1.39678438	      0.00000000	    -11.83804998	    -15.04569846	    -11.19910281	     97.34132029	      1.69892654	    -10.53071606	    -22.27949749	      0.00000000
     15.02666667	     -0.71157300	    -11.87783523	     -4.67520005	      2.35185782	      0.89246880	      0.98143226	     28.14798363	     12.19889842	    -20.40522135	     36.97560249	      0.64534601	     11.38027293	     -0.37635097	      0.00000000	     -9.68126842	    -15.87758815	    -10.93450341	    100.91279655	      1.76126056	     -9.95399088	    -22.82568158	      0.00000000
     15.03333333	     -0.98401521	    -12.22275805	     -5.38832639	      2.34921384	      0.88802128	      0.98207186	     28.06686460	     12.89562759	    -19.00858475	     39.71637841	      0.69318157	     12.49043976	     -2.18830060	      0.00000000	     -6.95023718	    -16.50418474	    -10.42760067	    104.29157392	      1.82023135	     -9.32501464	    -23.22148623	      0.00000000
     15.04000000	     -1.44045983	    -12.38482377	     -6.06092852	      2.34636416	      0.88398722	      0.98290325	     27.98727264	     13.49886917	    -17.51497378	     42.17747242	      0.73613576	     14.07476761	     -3.68841430	      0.00000000	     -3.76376757	    -16.96867558	     -9.64268306	    107.40614182	      1.87459081	     -8.68705956	    -23.37558400	      0.00000000
     15.04666667	     -1.39371071	    -12.60554019	     -6.51163146	      2.34362397	      0.88127033	      0.98362191	     27.03936217	     14.06365597	    -16.23334554	     44.16760388	      0.77087011	     16.25942900	     -4.56668011	      0.00000000	     -0.96861969	    -17.44020516	     -8.61912223	    110.08200451	      1.92129343	     -8.11130969	    -23.46658266	      0.00000000
     15.05333333	     -2.75759006	    -12.10051512	     -7.14644400	      2.34027189	      0.87735879	      0.98480592	     27.58740175	     14.17033474	    -14.53246756	     46.08336466	      0.80430644	     18.05631220	     -5.54469348	      0.00000000	      3.83929104	    -17.21576686	     -7.26581183	    112.66880215	      1.96644156	     -7.37559315	    -22.76956724	      0.00000000
     15.06000000	     -3.49134443	    -11.70241881	     -7.42791646	      2.33728162	      0.87502116	      0.98576054	     27.05365286	     14.23313840	    -13.09648762	     47.33213941	      0.82610167	     20.11608242	     -6.19603198	      0.00000000	      8.07901258	    -16.94942083	     -5.67124836	    114.69223149	      2.00175707	     -6.71164575	    -22.05944403	      0.00000000
     15.06666667	     -4.05096084	    -11.24208072	     -7.47734804	      2.33461879	      0.87349969	      0.98659275	     26.03921216	     14.09191099	    -11.91418750	     48.11602473	      0.83978305	     22.16267451	     -6.49581059	      0.00000000	     12.23696597	    -16.52053894	     -3.94881374	    116.21841267	      2.02839395	     -6.05312390	    -21.05495017	      0.00000000
     15.07333333	     -4.53448799	    -10.71066897	     -7.31071112	      2.33232895	      0.87269428	      0.98733113	     24.66017847	     13.74360477	    -10.99879249	     48.42036054	      0.84509472	     24.01865419	     -6.44684301	      0.00000000	     16.36348745	    -15.89396069	     -2.14456339	    117.23320824	      2.04610548	     -5.35556323	    -19.74797280	      0.00000000
